<svg id="visual" viewBox="0 0 960 540" width="960" height="540" xmlns="http://www.w3.org/2000/svg" xmlns:xlink="http://www.w3.org/1999/xlink" version="1.1"><rect x="0" y="0" width="960" height="540" fill="#FFFFFF"></rect><defs><linearGradient id="grad1_0" x1="43.8%" y1="100%" x2="100%" y2="0%"><stop offset="14.444444444444446%" stop-color="#729b79" stop-opacity="1"></stop><stop offset="85.55555555555554%" stop-color="#729b79" stop-opacity="1"></stop></linearGradient></defs><defs><linearGradient id="grad1_1" x1="43.8%" y1="100%" x2="100%" y2="0%"><stop offset="14.444444444444446%" stop-color="#729b79" stop-opacity="1"></stop><stop offset="85.55555555555554%" stop-color="#86a98b" stop-opacity="1"></stop></linearGradient></defs><defs><linearGradient id="grad1_2" x1="43.8%" y1="100%" x2="100%" y2="0%"><stop offset="14.444444444444446%" stop-color="#99b79e" stop-opacity="1"></stop><stop offset="85.55555555555554%" stop-color="#86a98b" stop-opacity="1"></stop></linearGradient></defs><defs><linearGradient id="grad1_3" x1="43.8%" y1="100%" x2="100%" y2="0%"><stop offset="14.444444444444446%" stop-color="#99b79e" stop-opacity="1"></stop><stop offset="85.55555555555554%" stop-color="#adc5b0" stop-opacity="1"></stop></linearGradient></defs><defs><linearGradient id="grad1_4" x1="43.8%" y1="100%" x2="100%" y2="0%"><stop offset="14.444444444444446%" stop-color="#c1d3c4" stop-opacity="1"></stop><stop offset="85.55555555555554%" stop-color="#adc5b0" stop-opacity="1"></stop></linearGradient></defs><defs><linearGradient id="grad1_5" x1="43.8%" y1="100%" x2="100%" y2="0%"><stop offset="14.444444444444446%" stop-color="#c1d3c4" stop-opacity="1"></stop><stop offset="85.55555555555554%" stop-color="#d6e2d7" stop-opacity="1"></stop></linearGradient></defs><defs><linearGradient id="grad1_6" x1="43.8%" y1="100%" x2="100%" y2="0%"><stop offset="14.444444444444446%" stop-color="#eaf0eb" stop-opacity="1"></stop><stop offset="85.55555555555554%" stop-color="#d6e2d7" stop-opacity="1"></stop></linearGradient></defs><defs><linearGradient id="grad1_7" x1="43.8%" y1="100%" x2="100%" y2="0%"><stop offset="14.444444444444446%" stop-color="#eaf0eb" stop-opacity="1"></stop><stop offset="85.55555555555554%" stop-color="#ffffff" stop-opacity="1"></stop></linearGradient></defs><defs><linearGradient id="grad2_0" x1="0%" y1="100%" x2="56.3%" y2="0%"><stop offset="14.444444444444446%" stop-color="#729b79" stop-opacity="1"></stop><stop offset="85.55555555555554%" stop-color="#729b79" stop-opacity="1"></stop></linearGradient></defs><defs><linearGradient id="grad2_1" x1="0%" y1="100%" x2="56.3%" y2="0%"><stop offset="14.444444444444446%" stop-color="#86a98b" stop-opacity="1"></stop><stop offset="85.55555555555554%" stop-color="#729b79" stop-opacity="1"></stop></linearGradient></defs><defs><linearGradient id="grad2_2" x1="0%" y1="100%" x2="56.3%" y2="0%"><stop offset="14.444444444444446%" stop-color="#86a98b" stop-opacity="1"></stop><stop offset="85.55555555555554%" stop-color="#99b79e" stop-opacity="1"></stop></linearGradient></defs><defs><linearGradient id="grad2_3" x1="0%" y1="100%" x2="56.3%" y2="0%"><stop offset="14.444444444444446%" stop-color="#adc5b0" stop-opacity="1"></stop><stop offset="85.55555555555554%" stop-color="#99b79e" stop-opacity="1"></stop></linearGradient></defs><defs><linearGradient id="grad2_4" x1="0%" y1="100%" x2="56.3%" y2="0%"><stop offset="14.444444444444446%" stop-color="#adc5b0" stop-opacity="1"></stop><stop offset="85.55555555555554%" stop-color="#c1d3c4" stop-opacity="1"></stop></linearGradient></defs><defs><linearGradient id="grad2_5" x1="0%" y1="100%" x2="56.3%" y2="0%"><stop offset="14.444444444444446%" stop-color="#d6e2d7" stop-opacity="1"></stop><stop offset="85.55555555555554%" stop-color="#c1d3c4" stop-opacity="1"></stop></linearGradient></defs><defs><linearGradient id="grad2_6" x1="0%" y1="100%" x2="56.3%" y2="0%"><stop offset="14.444444444444446%" stop-color="#d6e2d7" stop-opacity="1"></stop><stop offset="85.55555555555554%" stop-color="#eaf0eb" stop-opacity="1"></stop></linearGradient></defs><defs><linearGradient id="grad2_7" x1="0%" y1="100%" x2="56.3%" y2="0%"><stop offset="14.444444444444446%" stop-color="#ffffff" stop-opacity="1"></stop><stop offset="85.55555555555554%" stop-color="#eaf0eb" stop-opacity="1"></stop></linearGradient></defs><g transform="translate(960, 540)"><path d="M-378 0C-355.6 -63.3 -333.3 -126.7 -294.4 -170C-255.6 -213.3 -200.3 -236.6 -148.5 -257.2C-96.7 -277.9 -48.3 -295.9 0 -314L0 0Z" fill="#f5f8f5"></path><path d="M-330.7 0C-311.2 -55.4 -291.6 -110.9 -257.6 -148.8C-223.7 -186.6 -175.3 -207 -129.9 -225.1C-84.6 -243.1 -42.3 -258.9 0 -274.7L0 0Z" fill="#e0e9e1"></path><path d="M-283.5 0C-266.7 -47.5 -250 -95 -220.8 -127.5C-191.7 -160 -150.2 -177.4 -111.4 -192.9C-72.5 -208.4 -36.3 -222 0 -235.5L0 0Z" fill="#cbdbcd"></path><path d="M-236.2 0C-222.3 -39.6 -208.3 -79.2 -184 -106.3C-159.8 -133.3 -125.2 -147.8 -92.8 -160.8C-60.4 -173.7 -30.2 -185 0 -196.2L0 0Z" fill="#b7ccba"></path><path d="M-189 0C-177.8 -31.7 -166.6 -63.3 -147.2 -85C-127.8 -106.7 -100.2 -118.3 -74.3 -128.6C-48.3 -138.9 -24.2 -148 0 -157L0 0Z" fill="#a3bea7"></path><path d="M-141.7 0C-133.4 -23.8 -125 -47.5 -110.4 -63.8C-95.9 -80 -75.1 -88.7 -55.7 -96.5C-36.3 -104.2 -18.1 -111 0 -117.7L0 0Z" fill="#8fb094"></path><path d="M-94.5 0C-88.9 -15.8 -83.3 -31.7 -73.6 -42.5C-63.9 -53.3 -50.1 -59.1 -37.1 -64.3C-24.2 -69.5 -12.1 -74 0 -78.5L0 0Z" fill="#7ca282"></path><path d="M-47.2 0C-44.5 -7.9 -41.7 -15.8 -36.8 -21.3C-32 -26.7 -25 -29.6 -18.6 -32.2C-12.1 -34.7 -6 -37 0 -39.2L0 0Z" fill="#729b79"></path></g><g transform="translate(0, 0)"><path d="M378 0C329.6 45.2 281.2 90.3 251.1 145C221.1 199.7 209.3 263.9 170.5 295.3C131.7 326.7 65.8 325.4 0 324L0 0Z" fill="#f5f8f5"></path><path d="M330.8 0C288.4 39.5 246.1 79 219.8 126.9C193.4 174.7 183.1 230.9 149.2 258.4C115.2 285.9 57.6 284.7 0 283.5L0 0Z" fill="#e0e9e1"></path><path d="M283.5 0C247.2 33.9 210.9 67.7 188.4 108.7C165.8 149.8 157 197.9 127.9 221.5C98.8 245.1 49.4 244 0 243L0 0Z" fill="#cbdbcd"></path><path d="M236.3 0C206 28.2 175.8 56.4 157 90.6C138.2 124.8 130.8 164.9 106.6 184.6C82.3 204.2 41.2 203.4 0 202.5L0 0Z" fill="#b7ccba"></path><path d="M189 0C164.8 22.6 140.6 45.2 125.6 72.5C110.5 99.8 104.7 131.9 85.3 147.7C65.8 163.4 32.9 162.7 0 162L0 0Z" fill="#a3bea7"></path><path d="M141.8 0C123.6 16.9 105.5 33.9 94.2 54.4C82.9 74.9 78.5 99 63.9 110.7C49.4 122.5 24.7 122 0 121.5L0 0Z" fill="#8fb094"></path><path d="M94.5 0C82.4 11.3 70.3 22.6 62.8 36.2C55.3 49.9 52.3 66 42.6 73.8C32.9 81.7 16.5 81.3 0 81L0 0Z" fill="#7ca282"></path><path d="M47.3 0C41.2 5.6 35.2 11.3 31.4 18.1C27.6 25 26.2 33 21.3 36.9C16.5 40.8 8.2 40.7 0 40.5L0 0Z" fill="#729b79"></path></g></svg>